<svg xmlns="http://www.w3.org/2000/svg" viewBox="0 0 128 128" role="img" aria-label="Hood Desk">
  <defs>
    <radialGradient id="bg" cx="50%" cy="40%" r="65%">
      <stop offset="0%" stop-color="#141a00"/>
      <stop offset="50%" stop-color="#0a0a0a"/>
      <stop offset="100%" stop-color="#050505"/>
    </radialGradient>
    <linearGradient id="v" x1="0" y1="0" x2="1" y2="0">
      <stop offset="0%" stop-color="#8fbf00"/>
      <stop offset="50%" stop-color="#ccff00"/>
      <stop offset="100%" stop-color="#8fbf00"/>
    </linearGradient>
    <filter id="g" x="-30%" y="-30%" width="160%" height="160%">
      <feGaussianBlur stdDeviation="2" result="b"/>
      <feMerge><feMergeNode in="b"/><feMergeNode in="SourceGraphic"/></feMerge>
    </filter>
  </defs>
  <rect width="128" height="128" rx="28" fill="url(#bg)"/>
  <rect x="1.5" y="1.5" width="125" height="125" rx="26.5" fill="none" stroke="#ccff00" stroke-opacity="0.35" stroke-width="1.5"/>
  <circle cx="64" cy="58" r="42" fill="none" stroke="#ccff00" stroke-opacity="0.2" stroke-width="1.5"/>
  <circle cx="64" cy="58" r="38" fill="#080808"/>
  <circle cx="64" cy="58" r="37" fill="none" stroke="#ccff00" stroke-opacity="0.45" stroke-width="1.5"/>
  <path d="M38 72 C38 40 48 28 64 28 C80 28 90 40 90 72 L82 78 C78 52 72 44 64 44 C56 44 50 52 46 78 Z" fill="#0c0c0c"/>
  <ellipse cx="64" cy="58" rx="14" ry="11" fill="#050505"/>
  <path d="M50 58.5 L56 57 L64 60.5 L72 57 L78 58.5" fill="none" stroke="url(#v)" stroke-width="3.2" stroke-linecap="round" stroke-linejoin="round" filter="url(#g)"/>
  <path d="M42 80 H86" stroke="#ccff00" stroke-opacity="0.75" stroke-width="1.5"/>
  <path d="M50 80 V88 M64 80 V92 M78 80 V88" stroke="#ccff00" stroke-opacity="0.55" stroke-width="1.4"/>
  <circle cx="50" cy="88" r="2.2" fill="#ccff00"/>
  <circle cx="64" cy="92" r="2.6" fill="#ccff00"/>
  <circle cx="78" cy="88" r="2.2" fill="#ccff00"/>
  <path d="M50 88 H78" stroke="#ccff00" stroke-opacity="0.3" stroke-width="1"/>
  <text x="64" y="118" text-anchor="middle" font-family="ui-sans-serif,system-ui,sans-serif" font-size="11" font-weight="800" letter-spacing="0.28em" fill="#ccff00">HOOD</text>
</svg>
